<svg width="16" height="16" viewBox="0 0 16 16" fill="none" xmlns="http://www.w3.org/2000/svg">
<g clip-path="url(#clip0_420_2)">
<path d="M8.26082 1.01387L8.26265 1.01397C9.79664 1.09405 11.1353 2.5063 11.1208 4.04019L11.1206 4.05555L11.1214 4.07088C11.1985 5.55291 10.015 6.97955 8.54441 7.20425C8.4373 7.21305 8.32489 7.22048 8.20838 7.22819C7.54295 7.27219 6.74379 7.32504 6.03531 7.69152C4.13808 8.54995 3.02433 10.7713 3.48565 12.8068L3.49148 12.8325L3.49997 12.8574C3.50373 12.8685 3.51011 12.9254 3.45792 12.9994C3.41658 13.058 3.36684 13.0859 3.32489 13.0936C3.20982 13.076 3.12529 13.0254 3.02315 12.9271C2.96006 12.8663 2.89783 12.7944 2.81678 12.6991C2.81239 12.694 2.80795 12.6887 2.80345 12.6834C2.73343 12.601 2.64982 12.5027 2.55592 12.4063C1.0724 10.6296 0.597754 7.96875 1.37162 5.77262L1.3718 5.77268L1.37606 5.75943C2.02055 3.75414 3.64519 2.09927 5.63906 1.42165L5.63906 1.42166L5.64244 1.42049C6.38733 1.16138 7.16314 1.0066 7.93241 1.00488C8.04148 1.00464 8.15068 1.00771 8.26082 1.01387Z" stroke="#206B00"/>
<path opacity="0.1" d="M8.00454 1.00488C7.82364 1.00273 7.64314 1.00887 7.50552 1.01953C5.29151 1.191 2.49747 2.5065 1.38735 5.72656C1.29737 5.98758 1.17965 6.42009 1.12856 6.69141C0.685001 9.04719 1.46921 11.4619 3.18312 13.0751C3.38416 13.2643 3.55399 13.128 3.49478 12.8584C3.30148 11.9784 3.36384 11.0525 3.69497 10.1982C3.79473 9.9409 4.00205 9.54231 4.15493 9.3125C4.91398 8.17154 6.14315 7.42526 7.50552 7.27734C7.77991 7.24755 8.23013 7.25437 8.50259 7.21094C9.83171 6.99903 10.8786 5.95218 11.0905 4.62305C11.1339 4.35063 11.1339 3.89941 11.0905 3.62695C10.8786 2.29783 9.83172 1.25093 8.50259 1.03906C8.36638 1.01735 8.18544 1.00703 8.00454 1.00488Z" fill="#206B00"/>
<path d="M7.74371 14.991L7.74188 14.9909C6.20789 14.9108 4.86923 13.4986 4.88376 11.9647L4.8839 11.9493L4.88311 11.934C4.80605 10.452 5.98949 9.02532 7.46012 8.80062C7.56722 8.79182 7.67964 8.78439 7.79615 8.77668C8.46157 8.73268 9.26074 8.67983 9.96921 8.31335C11.8664 7.45492 12.9802 5.23352 12.5189 3.19806L12.5131 3.17237L12.5046 3.14742C12.5008 3.13638 12.4944 3.07942 12.5466 3.00545C12.5879 2.94687 12.6377 2.91901 12.6796 2.91127C12.7947 2.92888 12.8792 2.97942 12.9814 3.07781C13.0445 3.13859 13.1067 3.21046 13.1877 3.30576C13.1921 3.31091 13.1966 3.31613 13.2011 3.32141C13.2711 3.40381 13.3547 3.50218 13.4486 3.59857C14.9321 5.37525 15.4068 8.03612 14.6329 10.2323L14.6327 10.2322L14.6285 10.2454C13.984 12.2507 12.3593 13.9056 10.3655 14.5832L10.3655 14.5832L10.3621 14.5844C9.6172 14.8435 8.84139 14.9983 8.07211 15C7.96304 15.0002 7.85384 14.9972 7.74371 14.991ZM7.71581 15.4902L7.71581 15.4902L7.71581 15.4902Z" stroke="#AD5F00"/>
<path opacity="0.1" d="M7.99998 15C8.18088 15.0021 8.36138 14.996 8.499 14.9853C10.713 14.8139 13.5071 13.4984 14.6172 10.2783C14.7072 10.0173 14.8249 9.58477 14.876 9.31346C15.3195 6.95768 14.5353 4.54297 12.8214 2.9298C12.6204 2.74057 12.4505 2.87688 12.5097 3.14647C12.703 4.02651 12.6407 4.95237 12.3096 5.80662C12.2098 6.06397 12.0025 6.46256 11.8496 6.69237C11.0905 7.83333 9.86137 8.57961 8.499 8.72752C8.22461 8.75731 7.77439 8.75049 7.50193 8.79393C6.17282 9.00583 5.12591 10.0527 4.91404 11.3818C4.87062 11.6542 4.8706 12.1055 4.91404 12.3779C5.12595 13.707 6.1728 14.7539 7.50193 14.9658C7.63814 14.9875 7.81908 14.9978 7.99998 15Z" fill="#AD5F00"/>
</g>
<defs>
<clipPath id="clip0_420_2">
<rect width="16" height="16" fill="white"/>
</clipPath>
</defs>
</svg>
