<?xml version="1.0" encoding="UTF-8" standalone="no"?>
<svg
   width="16"
   height="16"
   viewBox="0 0 16 16"
   fill="none"
   version="1.1"
   id="svg4"
   sodipodi:docname="balanced_1.svg"
   inkscape:version="1.3.2 (091e20ef0f, 2023-11-25)"
   xmlns:inkscape="http://www.inkscape.org/namespaces/inkscape"
   xmlns:sodipodi="http://sodipodi.sourceforge.net/DTD/sodipodi-0.dtd"
   xmlns="http://www.w3.org/2000/svg"
   xmlns:svg="http://www.w3.org/2000/svg">
  <sodipodi:namedview
     id="namedview4"
     pagecolor="#ffffff"
     bordercolor="#000000"
     borderopacity="0.25"
     inkscape:showpageshadow="2"
     inkscape:pageopacity="0.0"
     inkscape:pagecheckerboard="0"
     inkscape:deskcolor="#d1d1d1"
     inkscape:zoom="51.5"
     inkscape:cx="7.9902913"
     inkscape:cy="8"
     inkscape:window-width="1920"
     inkscape:window-height="1019"
     inkscape:window-x="0"
     inkscape:window-y="30"
     inkscape:window-maximized="1"
     inkscape:current-layer="svg4" />
  <g
     clip-path="url(#clip0_420_2)"
     id="g4">
    <path
       fill-rule="evenodd"
       clip-rule="evenodd"
       d="M8.23292 1.5131V1.51309C8.13193 1.50745 8.03241 1.50466 7.93353 1.50488C7.22977 1.50645 6.50945 1.64828 5.80671 1.89273L5.79995 1.89508L5.79994 1.89506C3.95627 2.52163 2.44827 4.05741 1.85208 5.91242L1.84782 5.92567L1.8432 5.93879C1.13724 7.94221 1.55833 10.3779 2.8839 12.0179C2.82297 10.0339 3.98909 8.07467 5.81747 7.24131C6.62645 6.82707 7.54458 6.76863 8.19999 6.72691C8.30206 6.72041 8.39775 6.71432 8.48567 6.70736C9.69986 6.51225 10.6852 5.31153 10.6221 4.09684L10.6205 4.06617L10.6208 4.03545C10.6328 2.77213 9.50583 1.57955 8.23658 1.51329L8.23292 1.5131ZM8.60219 7.70117C8.47421 7.71191 8.34535 7.72073 8.21617 7.72958C7.54388 7.77562 6.86307 7.82225 6.25356 8.1416C4.56424 8.89856 3.56373 10.8893 3.97328 12.6963C4.10536 13.0842 3.77604 13.5856 3.3141 13.5958C2.88952 13.5566 2.66696 13.2948 2.42518 13.0104C2.34936 12.9213 2.27165 12.8299 2.18522 12.7424C0.577339 10.829 0.0658142 7.97387 0.900042 5.60645C1.59283 3.45086 3.3341 1.67691 5.47817 0.948242C6.2652 0.674472 7.09651 0.50675 7.93129 0.504883C8.05055 0.504616 8.16943 0.507983 8.28871 0.514648C10.0874 0.60855 11.6378 2.24046 11.6207 4.04492C11.7117 5.79468 10.3299 7.44712 8.60219 7.70117Z"
       style="fill: #206B00"
       class="success"
       id="path1" />
    <path
       opacity="0.1"
       d="M8.00454 1.00488C7.82364 1.00273 7.64314 1.00887 7.50552 1.01953C5.29151 1.191 2.49747 2.5065 1.38735 5.72656C1.29737 5.98758 1.17965 6.42009 1.12856 6.69141C0.685001 9.04719 1.46921 11.4619 3.18312 13.0751C3.38416 13.2643 3.55399 13.128 3.49478 12.8584C3.30148 11.9784 3.36384 11.0525 3.69497 10.1982C3.79473 9.9409 4.00205 9.54231 4.15493 9.3125C4.91398 8.17154 6.14315 7.42526 7.50552 7.27734C7.77991 7.24755 8.23013 7.25437 8.50259 7.21094C9.83171 6.99903 10.8786 5.95218 11.0905 4.62305C11.1339 4.35063 11.1339 3.89941 11.0905 3.62695C10.8786 2.29783 9.83172 1.25093 8.50259 1.03906C8.36638 1.01735 8.18544 1.00703 8.00454 1.00488Z"
       style="fill: #206B00"
       class="success"
       id="path2" />
    <path
       fill-rule="evenodd"
       clip-rule="evenodd"
       d="M7.76794 14.4916L7.7716 14.4918C7.87259 14.4974 7.9721 14.5002 8.071 14.5C8.77475 14.4984 9.49507 14.3566 10.1978 14.1121L10.2046 14.1098L10.2046 14.1098C12.0483 13.4832 13.5563 11.9475 14.1524 10.0924L14.1567 10.0792L14.1613 10.0661C14.8673 8.06266 14.4462 5.62694 13.1206 3.98698C13.1816 5.97095 12.0154 7.9302 10.1871 8.76356C9.37807 9.1778 8.45994 9.23624 7.80453 9.27796C7.70247 9.28446 7.60678 9.29055 7.51886 9.29751C6.30466 9.49262 5.31928 10.6933 5.38243 11.908L5.38403 11.9387L5.38374 11.9694C5.37177 13.2327 6.49869 14.4253 7.76794 14.4916ZM7.40234 8.3037C7.53031 8.29296 7.65918 8.28414 7.78835 8.27529C8.46064 8.22924 9.14145 8.18262 9.75097 7.86327C11.4403 7.10631 12.4408 5.11561 12.0312 3.30858C11.8992 2.92067 12.2285 2.41925 12.6904 2.4091C13.115 2.4483 13.3376 2.71006 13.5793 2.99443C13.6552 3.08361 13.7329 3.17501 13.8193 3.26247C15.4272 5.17583 15.9387 8.031 15.1045 10.3984C14.4117 12.554 12.6704 14.328 10.5264 15.0566C9.73932 15.3304 8.90802 15.4981 8.07323 15.5C7.95398 15.5003 7.83509 15.4969 7.71581 15.4902C5.91708 15.3963 4.3667 13.7644 4.38378 11.9599C4.2928 10.2102 5.67467 8.55775 7.40234 8.3037Z"
       style="fill: #ad5f00"
       class="warning"
       id="path3" />
    <path
       opacity="0.1"
       d="M7.99998 15C8.18088 15.0021 8.36138 14.996 8.499 14.9853C10.713 14.8139 13.5071 13.4984 14.6172 10.2783C14.7072 10.0173 14.8249 9.58477 14.876 9.31346C15.3195 6.95768 14.5353 4.54297 12.8214 2.9298C12.6204 2.74057 12.4505 2.87688 12.5097 3.14647C12.703 4.02651 12.6407 4.95237 12.3096 5.80662C12.2098 6.06397 12.0025 6.46256 11.8496 6.69237C11.0905 7.83333 9.86137 8.57961 8.499 8.72752C8.22461 8.75731 7.77439 8.75049 7.50193 8.79393C6.17282 9.00583 5.12591 10.0527 4.91404 11.3818C4.87062 11.6542 4.8706 12.1055 4.91404 12.3779C5.12595 13.707 6.1728 14.7539 7.50193 14.9658C7.63814 14.9875 7.81908 14.9978 7.99998 15Z"
       style="fill: #AD5F00"
       class="warning"
       id="path4" />
  </g>
  <defs
     id="defs4">
    <clipPath
       id="clip0_420_2">
      <rect
         width="16"
         height="16"
         fill="white"
         id="rect4" />
    </clipPath>
  </defs>
</svg>
