<?xml version="1.0" encoding="UTF-8" standalone="no"?>
<svg
   height="24"
   width="24"
   version="1.1"
   id="svg8"
   sodipodi:docname="battery-95-charging.svg"
   xml:space="preserve"
   inkscape:version="1.3.2 (091e20ef0f, 2023-11-25)"
   xmlns:inkscape="http://www.inkscape.org/namespaces/inkscape"
   xmlns:sodipodi="http://sodipodi.sourceforge.net/DTD/sodipodi-0.dtd"
   xmlns="http://www.w3.org/2000/svg"
   xmlns:svg="http://www.w3.org/2000/svg"
   xmlns:rdf="http://www.w3.org/1999/02/22-rdf-syntax-ns#"
   xmlns:cc="http://creativecommons.org/ns#"
   xmlns:dc="http://purl.org/dc/elements/1.1/"><sodipodi:namedview
     id="namedview1"
     pagecolor="#d1d1d1"
     bordercolor="#000000"
     borderopacity="0.25"
     inkscape:showpageshadow="2"
     inkscape:pageopacity="0.0"
     inkscape:pagecheckerboard="0"
     inkscape:deskcolor="#d1d1d1"
     showgrid="true"
     showborder="true"
     inkscape:zoom="22.627417"
     inkscape:cx="12.882602"
     inkscape:cy="9.8111066"
     inkscape:window-width="2560"
     inkscape:window-height="1373"
     inkscape:window-x="0"
     inkscape:window-y="0"
     inkscape:window-maximized="1"
     inkscape:current-layer="svg8"><inkscape:grid
       id="grid1"
       units="px"
       originx="0"
       originy="0"
       spacingx="1"
       spacingy="1"
       empcolor="#0099e5"
       empopacity="0.30196078"
       color="#0099e5"
       opacity="0.14901961"
       empspacing="5"
       dotted="false"
       gridanglex="30"
       gridanglez="30"
       visible="true" /></sodipodi:namedview><metadata
     id="metadata14"><rdf:RDF><cc:Work
         rdf:about=""><dc:format>image/svg+xml</dc:format><dc:type
           rdf:resource="http://purl.org/dc/dcmitype/StillImage" /></cc:Work></rdf:RDF></metadata><defs
     id="defs12"><inkscape:path-effect
       effect="fillet_chamfer"
       id="path-effect1"
       is_visible="true"
       lpeversion="1"
       nodesatellites_param="F,0,1,1,0,0,0,1 @ F,0,0,1,0,2.7386643,0,1 @ F,0,0,1,0,1,0,1 @ F,0,0,1,0,0,0,1 @ F,0,0,1,0,2.7322113,0,1 @ F,0,0,1,0,1,0,1"
       radius="0"
       unit="px"
       method="auto"
       mode="F"
       chamfer_steps="1"
       flexible="false"
       use_knot_distance="true"
       apply_no_radius="true"
       apply_with_radius="true"
       only_selected="true"
       hide_knots="false" /><inkscape:path-effect
       effect="fillet_chamfer"
       id="path-effect1-3"
       is_visible="true"
       lpeversion="1"
       nodesatellites_param="F,0,1,1,0,0,0,1 @ F,0,0,1,0,2.7386643,0,1 @ F,0,0,1,0,1,0,1 @ F,0,0,1,0,0,0,1 @ F,0,0,1,0,2.7322113,0,1 @ F,0,0,1,0,1,0,1"
       radius="0"
       unit="px"
       method="auto"
       mode="F"
       chamfer_steps="1"
       flexible="false"
       use_knot_distance="true"
       apply_no_radius="true"
       apply_with_radius="true"
       only_selected="true"
       hide_knots="false" /><inkscape:path-effect
       effect="fillet_chamfer"
       id="path-effect1-5"
       is_visible="true"
       lpeversion="1"
       nodesatellites_param="F,0,1,1,0,0,0,1 @ F,0,0,1,0,2.7386643,0,1 @ F,0,0,1,0,1,0,1 @ F,0,0,1,0,0,0,1 @ F,0,0,1,0,2.7322113,0,1 @ F,0,0,1,0,1,0,1"
       radius="4"
       unit="px"
       method="auto"
       mode="F"
       chamfer_steps="1"
       flexible="false"
       use_knot_distance="true"
       apply_no_radius="true"
       apply_with_radius="true"
       only_selected="true"
       hide_knots="false" /></defs><path
     id="rect1-7-5-5-7-2"
     style="fill:#555761;stroke-width:1.04501;stroke-linecap:round;stroke-linejoin:round;-inkscape-stroke:none"
     d="M 3 6 C 1.3380067 6 0 7.3380067 0 9 L 0 14 C 0 15.661992 1.3380067 17 3 17 L 9.2089844 17 C 9.09109 16.709176 9.0618472 16.368723 9.1601562 16 L 3 16 C 1.8920041 16 1 15.107996 1 14 L 1 9 C 1 7.8920041 1.8920041 7 3 7 L 9.125 7 L 9.8574219 6 L 3 6 z M 12.771484 6 C 12.874985 6.2808392 12.898519 6.5957917 12.8125 6.9140625 L 12.791016 7 L 19 7 C 20.107999 7 21 7.8920041 21 9 L 21 14 C 21 15.107996 20.107999 16 19 16 L 12.945312 16 L 12.224609 17 L 19 17 C 20.661988 17 22 15.661992 22 14 C 23.107999 14 24 13.107996 24 12 L 24 11 C 24 9.8920041 23.107999 9 22 9 C 22 7.3380067 20.661988 6 19 6 L 12.771484 6 z M 22 10 C 22.553999 10 23 10.446004 23 11 L 23 12 C 23 12.553996 22.553999 13 22 13 L 22 10 z " /><path
     id="rect1-5-5-9-3-2"
     style="font-variation-settings:normal;opacity:0.3;vector-effect:none;fill:#555761;fill-opacity:1;stroke:none;stroke-width:0.964203;stroke-linecap:butt;stroke-linejoin:miter;stroke-miterlimit:4;stroke-dasharray:none;stroke-dashoffset:0;stroke-opacity:1;-inkscape-stroke:none;marker:none;stop-color:#000000"
     d="M 3 8 C 2.4460006 8 2 8.4460006 2 9 L 2 14 C 2 14.553999 2.4460006 15 3 15 L 9.453125 15 L 9.75 14 L 7.0175781 14 C 5.7650204 13.999681 5.0433998 12.576992 5.7832031 11.566406 L 8.3925781 8 L 3 8 z M 12.542969 8 L 12.294922 9 L 14.998047 9 C 16.246519 8.999613 16.970412 10.413252 16.240234 11.425781 L 13.666016 15 L 18 15 C 18.553999 15 19 14.553999 19 14 L 19 9 C 19 8.4460006 18.553999 8 18 8 L 12.542969 8 z " /><path
     d="m 11.373047,6.0019531 c -0.185917,-0.01722 -0.367094,0.0652 -0.476563,0.2167969 L 6.5957031,12.1875 C 6.3518708,12.525795 6.5933812,13.000516 7.0097656,13 H 11 l -0.835937,3.345703 c -0.142712,0.563673 0.597872,0.908454 0.935546,0.435547 l 4.304688,-5.972656 C 15.64813,10.470299 15.406619,9.9994837 14.990234,10 H 11.009766 L 11.837891,6.65625 C 11.91548,6.3415073 11.695177,6.0314166 11.373047,6.0019531 Z"
     style="opacity:1;fill:#555761;stroke-width:1.20267"
     id="path2"
     sodipodi:nodetypes="cccccccccccc" /></svg>
