<?xml version="1.0" encoding="UTF-8" standalone="no"?>
<svg
   height="24"
   width="24"
   version="1.1"
   id="svg8"
   xml:space="preserve"
   sodipodi:docname="battery-0.svg"
   inkscape:version="1.3.2 (091e20ef0f, 2023-11-25)"
   xmlns:inkscape="http://www.inkscape.org/namespaces/inkscape"
   xmlns:sodipodi="http://sodipodi.sourceforge.net/DTD/sodipodi-0.dtd"
   xmlns="http://www.w3.org/2000/svg"
   xmlns:svg="http://www.w3.org/2000/svg"
   xmlns:rdf="http://www.w3.org/1999/02/22-rdf-syntax-ns#"
   xmlns:cc="http://creativecommons.org/ns#"
   xmlns:dc="http://purl.org/dc/elements/1.1/"><sodipodi:namedview
     id="namedview1"
     pagecolor="#ffffff"
     bordercolor="#000000"
     borderopacity="0.25"
     inkscape:showpageshadow="2"
     inkscape:pageopacity="0.0"
     inkscape:pagecheckerboard="0"
     inkscape:deskcolor="#d1d1d1"
     inkscape:zoom="47.333333"
     inkscape:cx="11.989437"
     inkscape:cy="12"
     inkscape:window-width="2560"
     inkscape:window-height="1373"
     inkscape:window-x="0"
     inkscape:window-y="0"
     inkscape:window-maximized="1"
     inkscape:current-layer="svg8" /><metadata
     id="metadata14"><rdf:RDF><cc:Work
         rdf:about=""><dc:format>image/svg+xml</dc:format><dc:type
           rdf:resource="http://purl.org/dc/dcmitype/StillImage" /></cc:Work></rdf:RDF></metadata><defs
     id="defs12" /><path
     id="rect1-7-5-5-7-6-0"
     style="font-variation-settings:normal;opacity:1;vector-effect:none;fill:#c6262e;fill-opacity:1;stroke-width:1.04501;stroke-linecap:round;stroke-linejoin:round;stroke-miterlimit:4;stroke-dasharray:none;stroke-dashoffset:0;stroke-opacity:1;-inkscape-stroke:none;stop-color:#000000;stop-opacity:1"
     d="M 3,6 C 1.338002,6 0,7.338007 0,9 v 5 c 0,1.661992 1.338002,3 3,3 H 9.28125 C 9.445222,16.664432 9.615555,16.330923 9.791016,16 H 3 C 1.892001,16 1,15.107996 1,14 V 9 C 1,7.892004 1.892001,7 3,7 h 16 c 1.107999,0 2,0.892004 2,2 v 5 c 0,0.733587 -0.392684,1.370724 -0.978516,1.71875 0.161592,0.291303 0.322905,0.583131 0.486328,0.873047 C 21.400166,16.073113 22,15.110593 22,14 c 1.107999,0 2,-0.892004 2,-2 V 11 C 24,9.892004 23.107999,9 22,9 22,7.338007 20.661988,6 19,6 Z m 19,4 c 0.553999,0 1,0.446004 1,1 v 1 c 0,0.553996 -0.446001,1 -1,1 z" /><path
     id="rect1-5-5-9-3-2-8-4-4"
     style="font-variation-settings:normal;opacity:0.1;vector-effect:none;fill:#c6262e;fill-opacity:1;stroke:none;stroke-width:1.20267;stroke-linecap:butt;stroke-linejoin:miter;stroke-miterlimit:4;stroke-dasharray:none;stroke-dashoffset:0;stroke-opacity:1;-inkscape-stroke:none;marker:none;stop-color:#000000;stop-opacity:1"
     d="M 3,8 C 2.446001,8 2,8.446001 2,9 v 5 c 0,0.553999 0.446001,1 1,1 h 7.333984 c 0.649861,-1.164881 1.333527,-2.317448 1.958985,-3.492188 0.669598,-1.012297 1.033511,-2.604196 2.445312,-2.757812 0.675556,-0.124886 1.403987,0.191206 1.806641,0.759766 1.038633,1.746455 2.007551,3.545163 2.990234,5.333984 C 19.81458,14.666785 20,14.35659 20,14 V 9 C 20,8.446001 19.553999,8 19,8 Z" /><path
     id="path10"
     style="font-variation-settings:normal;opacity:1;vector-effect:none;fill:#d48e15;fill-opacity:1;stroke:none;stroke-width:1.46671;stroke-linecap:butt;stroke-linejoin:miter;stroke-miterlimit:4;stroke-dasharray:none;stroke-dashoffset:0;stroke-opacity:1;-inkscape-stroke:none;marker:none;stop-color:#000000;stop-opacity:1"
     d="m 14.853515,9.724609 a 0.95077254,0.95077254 0 0 0 -0.687499,0.478516 l -4.03711,7.242187 a 1.0124197,1.0124197 0 0 0 0.876954,1.50586 L 18.992188,19 A 1.0014411,1.0014411 0 0 0 19.875,17.513672 L 15.828126,10.205078 A 0.95077254,0.95077254 0 0 0 14.853515,9.724609 Z M 14.669922,12 h 0.660156 a 0.48178953,0.48178953 0 0 1 0.482422,0.5 l -0.113281,3 A 0.51889878,0.51889878 0 0 1 15.181641,16 H 14.818359 A 0.51889878,0.51889878 0 0 1 14.300782,15.5 L 14.1875,12.5 A 0.48178953,0.48178953 0 0 1 14.669922,12 Z M 15,16.423828 c 0.179088,1e-6 0.357685,0.03887 0.46875,0.117188 0.208934,0.147328 0.345703,0.390481 0.345703,0.666015 0,0.450371 -0.364082,0.816406 -0.814453,0.816406 -0.45037,0 -0.814454,-0.366035 -0.814454,-0.816406 0,-0.275537 0.136766,-0.518688 0.345704,-0.666015 0.111064,-0.07831 0.289661,-0.117188 0.46875,-0.117188 z" /></svg>
