<?xml version="1.0" encoding="UTF-8"?>
<svg width="24" height="24" version="1.1" xml:space="preserve" xmlns="http://www.w3.org/2000/svg" xmlns:cc="http://creativecommons.org/ns#" xmlns:dc="http://purl.org/dc/elements/1.1/" xmlns:rdf="http://www.w3.org/1999/02/22-rdf-syntax-ns#"><style>.success {   }
</style><metadata><rdf:RDF><cc:Work rdf:about=""><dc:format>image/svg+xml</dc:format><dc:type rdf:resource="http://purl.org/dc/dcmitype/StillImage"/></cc:Work></rdf:RDF></metadata><path class="success" d="m3 6c-1.662 0-3 1.338-3 3v5c0 1.662 1.338 3 3 3h16c1.662 0 3-1.338 3-3 1.108 0 2-0.892 2-2v-1c0-1.108-0.892-2-2-2 0-1.662-1.338-3-3-3h-16zm19 4c0.554 0 1 0.446 1 1v1c0 0.554-0.446 1-1 1v-3z" fill="#68b723" stop-color="#000000" style="-inkscape-stroke:none;font-variation-settings:normal"/></svg>
