<?xml version="1.0" encoding="UTF-8" standalone="no"?>
<svg
   height="24"
   width="24"
   version="1.1"
   id="svg8"
   xml:space="preserve"
   xmlns="http://www.w3.org/2000/svg"
   xmlns:svg="http://www.w3.org/2000/svg"
   xmlns:rdf="http://www.w3.org/1999/02/22-rdf-syntax-ns#"
   xmlns:cc="http://creativecommons.org/ns#"
   xmlns:dc="http://purl.org/dc/elements/1.1/"><metadata
     id="metadata14"><rdf:RDF><cc:Work
         rdf:about=""><dc:format>image/svg+xml</dc:format><dc:type
           rdf:resource="http://purl.org/dc/dcmitype/StillImage" /></cc:Work></rdf:RDF></metadata><defs
     id="defs12" /><path
     id="rect1-7-5-5-7"
     style="fill:#555761;stroke-width:1.04501;stroke-linecap:round;stroke-linejoin:round;-inkscape-stroke:none"
     d="M 3,6 C 1.338005,6 0,7.338005 0,9 v 5 c 0,1.661994 1.338005,3 3,3 h 16 c 1.66199,0 3,-1.338006 3,-3 1.108,0 2,-0.892003 2,-2 V 11 C 24,9.892003 23.108,9 22,9 22,7.338005 20.66199,6 19,6 Z m 0,1 h 16 c 1.108,0 2,0.892003 2,2 v 5 c 0,1.107997 -0.892,2 -2,2 H 3 C 1.892003,16 1,15.107997 1,14 V 9 C 1,7.892003 1.892003,7 3,7 Z m 19,3 c 0.554,0 1,0.446003 1,1 v 1 c 0,0.553997 -0.446,1 -1,1 z" /><rect
     style="font-variation-settings:normal;vector-effect:none;fill:#555761;fill-opacity:1;stroke:none;stroke-width:1.04501;stroke-linecap:round;stroke-linejoin:round;stroke-miterlimit:4;stroke-dasharray:none;stroke-dashoffset:0;stroke-opacity:1;-inkscape-stroke:none;marker:none;stop-color:#000000;opacity:1;stop-opacity:1"
     id="rect1-5-5-9-3-2-8"
     width="18"
     height="7"
     x="2"
     y="8"
     rx="0.99999994"
     ry="1" /></svg>
