<?xml version="1.0" encoding="UTF-8"?>
<svg width="24" height="24" version="1.1" xml:space="preserve" xmlns="http://www.w3.org/2000/svg" xmlns:cc="http://creativecommons.org/ns#" xmlns:dc="http://purl.org/dc/elements/1.1/" xmlns:rdf="http://www.w3.org/1999/02/22-rdf-syntax-ns#"><style>.success {   }
</style><metadata><rdf:RDF><cc:Work rdf:about=""><dc:format>image/svg+xml</dc:format><dc:type rdf:resource="http://purl.org/dc/dcmitype/StillImage"/></cc:Work></rdf:RDF></metadata><path d="m3 6c-1.662 0-3 1.338-3 3v5c0 1.662 1.338 3 3 3h14.24c-0.27718-1.0108 0.34004-2.0053 0.47852-3h-2.4082c-1.1055 0.20003-2.1671-0.97948-1.7051-2.043 0.99885-1.6278 2.2262-3.1224 3.3125-4.6992 0.32694-0.35767 0.58162-0.83444 0.87891-1.2578h-14.797zm17.83 0.61914c-0.023172 0.80003-0.4325 1.5891-0.54297 2.3809h1.7129c0-0.97204-0.45742-1.8333-1.1699-2.3809zm3.1699 5.0449c-0.53328 0.77504-1.0821 1.5399-1.6348 2.3027 0.93213-0.17092 1.6348-0.98379 1.6348-1.9668v-0.33594zm-2.0469 2.8711c-0.51 0.70119-1.0209 1.4028-1.5254 2.1074 0.78838-0.42508 1.362-1.1939 1.5254-2.1074z" fill="#555761" opacity=".3" stop-color="#000000" style="-inkscape-stroke:none;font-variation-settings:normal"/><path d="m19.303 6c-0.16072 0.00631-0.31046 0.086103-0.40625 0.21875l-4.3008 5.9688c-0.24383 0.3383-0.0023 0.81302 0.41406 0.8125h3.9902l-0.83594 3.3457c-0.14271 0.56367 0.59787 0.90845 0.93555 0.43555l4.3047-5.9727c0.24383-0.3383 0.002322-0.80911-0.41406-0.80859h-3.9805l0.82812-3.3438c0.077589-0.31474-0.14271-0.62483-0.46484-0.6543-0.02324-0.0021525-0.047352-0.0028549-0.070313-0.0019531z" fill="#555761" stroke-linecap="round" stroke-linejoin="round" stroke-width="1.045" style="-inkscape-stroke:none"/></svg>
