<?xml version="1.0" encoding="UTF-8" standalone="no"?>
<svg
   width="24"
   height="24"
   version="1.1"
   xml:space="preserve"
   id="svg1"
   sodipodi:docname="battery-labeled.svg"
   inkscape:version="1.4.2 (ebf0e940d0, 2025-05-08)"
   xmlns:inkscape="http://www.inkscape.org/namespaces/inkscape"
   xmlns:sodipodi="http://sodipodi.sourceforge.net/DTD/sodipodi-0.dtd"
   xmlns="http://www.w3.org/2000/svg"
   xmlns:svg="http://www.w3.org/2000/svg"
   xmlns:rdf="http://www.w3.org/1999/02/22-rdf-syntax-ns#"
   xmlns:cc="http://creativecommons.org/ns#"
   xmlns:dc="http://purl.org/dc/elements/1.1/"><defs
     id="defs1" /><sodipodi:namedview
     id="namedview1"
     pagecolor="#ffffff"
     bordercolor="#000000"
     borderopacity="0.25"
     inkscape:showpageshadow="2"
     inkscape:pageopacity="0.0"
     inkscape:pagecheckerboard="0"
     inkscape:deskcolor="#d1d1d1"
     inkscape:zoom="27.083333"
     inkscape:cx="12.018462"
     inkscape:cy="12"
     inkscape:window-width="1440"
     inkscape:window-height="893"
     inkscape:window-x="0"
     inkscape:window-y="0"
     inkscape:window-maximized="1"
     inkscape:current-layer="svg1" /><style
     id="style1">.success {   }
</style><metadata
     id="metadata1"><rdf:RDF><cc:Work
         rdf:about=""><dc:format>image/svg+xml</dc:format><dc:type
           rdf:resource="http://purl.org/dc/dcmitype/StillImage" /></cc:Work></rdf:RDF></metadata><path
     d="m3 5c-1.662 0-3 1.338-3 3v1 5 1c0 1.662 1.338 3 3 3h16c1.662 0 3-1.338 3-3v-1c1.108 0 2-0.892 2-2v-1c0-1.108-0.892-2-2-2v-1c0-1.662-1.338-3-3-3h-16zm19 5c0.554 0 1 0.446 1 1v1c0 0.554-0.446 1-1 1v-3z"
     fill="#555761"
     opacity=".5"
     stop-color="#000000"
     style="-inkscape-stroke:none;font-variation-settings:normal;opacity:1"
     id="path1" /></svg>
