<svg width="16" height="16" viewBox="0 0 16 16" fill="none" xmlns="http://www.w3.org/2000/svg">
<g clip-path="url(#clip0_420_10)">
<path d="M1 8C0.999999 4.13791 4.13791 1 8 1C11.8621 1 15 4.13791 15 8C15 11.8621 11.8621 15 8 15C4.13791 15 1 11.8621 1 8Z" stroke="#AD5F00"/>
<path opacity="0.1" d="M8 1C4.13765 1 0.999999 4.13765 1 8C1 11.8623 4.13765 15 8 15C11.8624 15 15 11.8623 15 8C15 4.13765 11.8624 1 8 1ZM8.16699 4.33398C8.35109 4.33398 8.5 4.4829 8.5 4.66699C8.5 4.71441 8.48953 4.75995 8.47168 4.80078L8 7H10.667C10.8511 7 11 7.14989 11 7.33398C11 7.39612 10.9827 7.45411 10.9531 7.50391L8.08301 11.5547C8.02193 11.6238 7.93249 11.667 7.83301 11.667C7.64891 11.667 7.5 11.5181 7.5 11.334C7.5 11.2866 7.51047 11.241 7.52832 11.2002L8 9H5.33301C5.14891 9 5 8.85109 5 8.66699C5 8.60485 5.01727 8.54687 5.04688 8.49707L7.91699 4.44629C7.97807 4.37718 8.06751 4.33398 8.16699 4.33398Z" fill="#AD5F00"/>
<path opacity="0.8" d="M8.16667 4.3335C8.06719 4.3335 7.97775 4.37702 7.91667 4.44613L5.04688 8.49698C5.01727 8.54678 5 8.60476 5 8.6669C5 8.851 5.14924 9.00024 5.33333 9.00024H8L7.528 11.2002C7.51015 11.241 7.5 11.2862 7.5 11.3336C7.5 11.5177 7.64924 11.667 7.83333 11.667C7.93281 11.667 8.02226 11.6235 8.08333 11.5543L10.9531 7.50349C10.9827 7.4537 11 7.39571 11 7.33357C11 7.14947 10.8508 7.00024 10.6667 7.00024H8L8.472 4.8003C8.48985 4.75946 8.5 4.71425 8.5 4.66683C8.5 4.48274 8.35077 4.3335 8.16667 4.3335Z" fill="#AD5F00"/>
</g>
<defs>
<clipPath id="clip0_420_10">
<rect width="16" height="16" fill="white"/>
</clipPath>
</defs>
</svg>
