<svg width="16" height="16" viewBox="0 0 16 16" fill="none" xmlns="http://www.w3.org/2000/svg">
<path fill-rule="evenodd" clip-rule="evenodd" d="M15.7607 0.632657C15.9657 0.817631 15.982 1.1338 15.797 1.33883C15.6975 1.44919 15.5368 1.61621 15.4397 1.71564C15.2514 1.90828 15.0859 2.04715 14.9334 2.17331C14.9233 2.18165 14.9133 2.18991 14.9034 2.19812C14.8363 2.25355 14.7722 2.30653 14.7077 2.36219C14.7079 2.36284 14.708 2.36349 14.7082 2.36414C14.7319 2.44749 14.7503 2.51215 14.7587 2.53899C15.4986 4.9175 14.9342 7.5631 13.8326 9.66744C13.7072 9.90801 13.5093 10.1147 13.2049 10.1712C12.9591 10.2169 12.7231 10.1413 12.5917 10.0992L12.5829 10.0964C11.6169 9.76737 10.4381 10.3597 10.1286 11.3289L10.1228 11.3471L10.1156 11.3648C9.91587 11.857 10.0263 12.42 10.2271 13.0923L10.3437 13.4826L9.98495 13.6757C8.87359 14.2736 7.65698 14.7285 6.37449 14.9027C4.91397 15.1454 3.44603 14.9158 2.09849 14.4851C1.74671 14.3886 1.59318 14.0727 1.53117 13.9237C1.46955 13.7757 1.42457 13.6016 1.39434 13.4845C1.38952 13.4659 1.38507 13.4487 1.381 13.4332C0.622651 11.0131 1.06036 8.35934 2.23733 6.19684C3.8455 3.16807 7.1124 1.17172 10.5128 1.01054C10.6631 1.00069 10.8122 0.996618 10.9596 0.997073C11.9818 1.00023 12.971 1.2356 13.8941 1.5134L13.9428 1.52806L14.0664 1.59478C14.1355 1.53541 14.2009 1.48136 14.2629 1.43014C14.274 1.42095 14.285 1.41185 14.2959 1.40283C14.443 1.28114 14.5748 1.16988 14.7244 1.01678C14.8202 0.918705 14.9691 0.763645 15.0545 0.668982C15.2395 0.463947 15.5557 0.447684 15.7607 0.632657ZM13.3239 2.38835C12.5283 2.16197 11.7414 1.99949 10.9565 1.99707C10.8281 1.99667 10.7006 2.00027 10.5741 2.00867L10.5644 2.00931C7.50149 2.15293 4.55634 3.95971 3.11942 6.66794L3.11686 6.67275C2.04348 8.64367 1.67016 11.0223 2.33824 13.1438L2.34149 13.1541L2.34429 13.1645C2.35313 13.1975 2.3606 13.2263 2.3677 13.2537C2.37846 13.2951 2.38835 13.3332 2.40079 13.3774C2.41972 13.4447 2.43713 13.498 2.45439 13.5395C2.45601 13.5434 2.45757 13.547 2.45906 13.5504C3.6966 13.9393 4.97942 14.1223 6.21726 13.9151L6.22509 13.9138L6.23296 13.9127C7.24349 13.7764 8.2261 13.4406 9.1569 12.9783C9.00716 12.3899 8.91125 11.6896 9.18187 11.0066C9.67011 9.51446 11.4141 8.64485 12.9007 9.14816C12.9251 9.15596 12.9464 9.16244 12.9653 9.16782C13.9119 7.34307 14.3772 5.16369 13.9098 3.22098C11.8208 5.20103 9.58357 7.02098 7.23368 8.67995C7.00809 8.83921 6.69611 8.78544 6.53685 8.55985C6.37759 8.33426 6.43136 8.02228 6.65695 7.86302C8.99098 6.21524 11.21 4.4076 13.2784 2.44149L13.3239 2.38835Z" fill="#206B00" class="success" />
<path opacity="0.1" d="M10.9961 1.99805H11C11.8677 2.00153 12.7181 2.20459 13.5488 2.45508C13.7978 3.28477 13.9993 4.13374 14.002 5V5.00195C14.0016 6.44641 13.6331 7.88282 12.9668 9.16406C12.6557 9.05672 12.3291 9.00129 12 9C11.2044 9 10.4413 9.31607 9.87868 9.87868C9.31607 10.4413 9 11.2044 9 12C9.00108 12.3297 9.05651 12.657 9.16406 12.9688C7.88381 13.6342 6.4471 14.0013 5.00391 14.002C4.13495 13.9989 3.2831 13.7958 2.45117 13.5449C2.20203 12.7146 2.00056 11.865 1.99805 10.998C1.99858 8.64216 2.9689 6.30063 4.63477 4.63477C6.30018 2.96935 8.64087 1.9991 10.9961 1.99805Z" fill="#206B00" class="success" />
</svg>
