<svg width="16" height="16" viewBox="0 0 16 16" fill="none" xmlns="http://www.w3.org/2000/svg">
<path d="M14.1406 2.20312C14.1797 2.32812 14.2574 2.61073 14.2812 2.6875C14.9697 4.90086 14.4517 7.40674 13.3896 9.43555C13.2287 9.74504 13.0295 9.71443 12.7441 9.62305C11.5144 9.20413 10.0474 9.93981 9.65234 11.1768C9.37969 11.8486 9.54935 12.5701 9.74805 13.2354C8.67405 13.8132 7.51232 14.2446 6.29981 14.4082C4.93564 14.6365 3.54428 14.4238 2.23828 14.0049C2.01283 13.9502 1.9347 13.5678 1.86133 13.2939C1.14561 11.0212 1.55118 8.50214 2.67773 6.43359C4.20043 3.56371 7.30803 1.66136 10.541 1.50977C10.6802 1.50052 10.8194 1.49664 10.958 1.49707C11.9079 1.5 12.8425 1.71906 13.75 1.99219L14.1406 2.20312ZM14.1406 2.20312C14.4873 1.86646 14.7442 1.71195 15.082 1.36621C15.1785 1.26745 15.3333 1.10642 15.4258 1.00391M14.1406 2.20312L13.6416 2.78613C11.5493 4.77668 9.3051 6.60552 6.94531 8.27148" stroke="#206B00" stroke-linecap="round"/>
<path opacity="0.1" d="M10.9961 1.99805H11C11.8677 2.00153 12.7181 2.20459 13.5488 2.45508C13.7978 3.28477 13.9993 4.13374 14.002 5V5.00195C14.0016 6.44641 13.6331 7.88282 12.9668 9.16406C12.6557 9.05672 12.3291 9.00129 12 9C11.2044 9 10.4413 9.31607 9.87868 9.87868C9.31607 10.4413 9 11.2044 9 12C9.00108 12.3297 9.05651 12.657 9.16406 12.9688C7.88381 13.6342 6.4471 14.0013 5.00391 14.002C4.13495 13.9989 3.2831 13.7958 2.45117 13.5449C2.20203 12.7146 2.00056 11.865 1.99805 10.998C1.99858 8.64216 2.9689 6.30063 4.63477 4.63477C6.30018 2.96935 8.64087 1.9991 10.9961 1.99805Z" fill="#206B00"/>
</svg>
